<svg width="14" height="14" viewBox="0 0 14 14" fill="none" xmlns="http://www.w3.org/2000/svg">
<g clip-path="url(#clip0_158_2308)">
<path d="M13.125 3.04688V4.36375H0.875V3.04688C0.875 2.32502 1.46561 1.73438 2.1875 1.73438H3.71875V3.02938C3.71875 3.27 3.91563 3.46688 4.15625 3.46688C4.39687 3.46688 4.59375 3.27 4.59375 3.02938V1.73438H9.40625V3.02938C9.40625 3.27 9.60313 3.46688 9.84375 3.46688C10.0844 3.46688 10.2812 3.27 10.2812 3.02938V1.73438H11.8125C12.5344 1.73438 13.125 2.32502 13.125 3.04688Z" fill="#B1B1B1"/>
<path d="M9.625 9.61719H12.8581L9.1875 12.8897V10.0547C9.1875 9.81407 9.38438 9.61719 9.625 9.61719Z" fill="#B1B1B1"/>
<path d="M13.125 5.23828V8.74266H9.625C8.90311 8.74266 8.3125 9.33327 8.3125 10.0552V13.1264H2.1875C1.46561 13.1264 0.875 12.5358 0.875 11.8139V5.23828H13.125Z" fill="#B1B1B1"/>
<path d="M4.59375 1.3125V1.73248H3.71875V1.3125C3.71875 1.07188 3.91563 0.875 4.15625 0.875C4.39687 0.875 4.59375 1.07188 4.59375 1.3125Z" fill="#B1B1B1"/>
<path d="M10.2812 1.3125V1.73248H9.40625V1.3125C9.40625 1.07188 9.60313 0.875 9.84375 0.875C10.0844 0.875 10.2812 1.07188 10.2812 1.3125Z" fill="#B1B1B1"/>
</g>
<defs>
<clipPath id="clip0_158_2308">
<rect width="14" height="14" fill="white"/>
</clipPath>
</defs>
</svg>
