<svg width="32" height="32" viewBox="0 0 32 32" fill="none" xmlns="http://www.w3.org/2000/svg">
<g clip-path="url(#clip0_405_740)">
<path d="M29.3333 8H26.6667V6.528C26.6649 5.96264 26.4401 5.42082 26.0411 5.02027L21.6464 0.6256C21.2458 0.226613 20.704 0.00179905 20.1387 0L6.93333 0C6.50899 0 6.10202 0.168571 5.80196 0.468629C5.5019 0.768687 5.33333 1.17565 5.33333 1.6V8H2.66667C1.95968 8.00085 1.2819 8.28207 0.781984 8.78198C0.28207 9.2819 0.000846857 9.95968 0 10.6667L0 20.2667C0.000846857 20.9737 0.28207 21.6514 0.781984 22.1514C1.2819 22.6513 1.95968 22.9325 2.66667 22.9333H5.86667V30.9333C5.86667 31.2162 5.97905 31.4875 6.17909 31.6876C6.37913 31.8876 6.65044 32 6.93333 32H8C8.2829 32 8.55421 31.8876 8.75425 31.6876C8.95429 31.4875 9.06667 31.2162 9.06667 30.9333V22.9333H10.1333V27.2C10.1333 27.4829 10.2457 27.7542 10.4458 27.9542C10.6458 28.1543 10.9171 28.2667 11.2 28.2667H12.2667C12.5496 28.2667 12.8209 28.1543 13.0209 27.9542C13.221 27.7542 13.3333 27.4829 13.3333 27.2V22.9333H14.4V29.8667C14.4 30.1496 14.5124 30.4209 14.7124 30.6209C14.9125 30.821 15.1838 30.9333 15.4667 30.9333H16.5333C16.8162 30.9333 17.0875 30.821 17.2876 30.6209C17.4876 30.4209 17.6 30.1496 17.6 29.8667V22.9333H18.6667V28.2667C18.6667 28.5496 18.779 28.8209 18.9791 29.0209C19.1791 29.221 19.4504 29.3333 19.7333 29.3333H20.8C21.0829 29.3333 21.3542 29.221 21.5542 29.0209C21.7543 28.8209 21.8667 28.5496 21.8667 28.2667V22.9333H22.9333V30.9333C22.9333 31.2162 23.0457 31.4875 23.2458 31.6876C23.4458 31.8876 23.7171 32 24 32H25.0667C25.3496 32 25.6209 31.8876 25.8209 31.6876C26.021 31.4875 26.1333 31.2162 26.1333 30.9333V22.9333H29.3333C30.0403 22.9325 30.7181 22.6513 31.218 22.1514C31.7179 21.6514 31.9992 20.9737 32 20.2667V10.6667C31.9992 9.95968 31.7179 9.2819 31.218 8.78198C30.7181 8.28207 30.0403 8.00085 29.3333 8ZM26.6667 11.2H27.2C27.3415 11.2 27.4771 11.2562 27.5771 11.3562C27.6771 11.4562 27.7333 11.5919 27.7333 11.7333V12.8C27.7333 12.9414 27.6771 13.0771 27.5771 13.1771C27.4771 13.2771 27.3415 13.3333 27.2 13.3333H26.6667V11.2ZM24.8459 5.33333H21.8667C21.7252 5.33333 21.5896 5.27714 21.4895 5.17712C21.3895 5.0771 21.3333 4.94145 21.3333 4.8V1.8208L24.8459 5.33333ZM6.4 1.6C6.4 1.45855 6.45619 1.3229 6.55621 1.22288C6.65623 1.12286 6.79188 1.06667 6.93333 1.06667H20.1387C20.1816 1.06826 20.2243 1.07254 20.2667 1.07947V4.8C20.2667 5.22435 20.4352 5.63131 20.7353 5.93137C21.0354 6.23143 21.4423 6.4 21.8667 6.4H25.5872C25.5941 6.44236 25.5984 6.48511 25.6 6.528V13.3333H6.4V1.6ZM4.8 13.3333C4.65855 13.3333 4.5229 13.2771 4.42288 13.1771C4.32286 13.0771 4.26667 12.9414 4.26667 12.8V11.7333C4.26667 11.5919 4.32286 11.4562 4.42288 11.3562C4.5229 11.2562 4.65855 11.2 4.8 11.2H5.33333V13.3333H4.8ZM8 30.9333H6.93333V22.9333H8V30.9333ZM12.2667 27.2H11.2V22.9333H12.2667V27.2ZM16.5333 29.8667H15.4667V22.9333H16.5333V29.8667ZM20.8 28.2667H19.7333V22.9333H20.8V28.2667ZM25.0667 30.9333H24V22.9333H25.0667V30.9333ZM30.9333 20.2667C30.9333 20.691 30.7648 21.098 30.4647 21.398C30.1646 21.6981 29.7577 21.8667 29.3333 21.8667H2.66667C2.24232 21.8667 1.83535 21.6981 1.5353 21.398C1.23524 21.098 1.06667 20.691 1.06667 20.2667V10.6667C1.06667 10.2423 1.23524 9.83535 1.5353 9.5353C1.83535 9.23524 2.24232 9.06667 2.66667 9.06667H5.33333V10.1333H4.8C4.37565 10.1333 3.96869 10.3019 3.66863 10.602C3.36857 10.902 3.2 11.309 3.2 11.7333V12.8C3.2 13.2243 3.36857 13.6313 3.66863 13.9314C3.96869 14.2314 4.37565 14.4 4.8 14.4H27.2C27.6243 14.4 28.0313 14.2314 28.3314 13.9314C28.6314 13.6313 28.8 13.2243 28.8 12.8V11.7333C28.8 11.309 28.6314 10.902 28.3314 10.602C28.0313 10.3019 27.6243 10.1333 27.2 10.1333H26.6667V9.06667H29.3333C29.7577 9.06667 30.1646 9.23524 30.4647 9.5353C30.7648 9.83535 30.9333 10.2423 30.9333 10.6667V20.2667Z" fill="white"/>
<path d="M4.26602 16C3.94957 16 3.64022 16.0938 3.3771 16.2696C3.11399 16.4455 2.90891 16.6953 2.78781 16.9877C2.66671 17.2801 2.63502 17.6018 2.69676 17.9121C2.7585 18.2225 2.91088 18.5076 3.13465 18.7314C3.35841 18.9551 3.6435 19.1075 3.95387 19.1693C4.26424 19.231 4.58595 19.1993 4.87831 19.0782C5.17067 18.9571 5.42056 18.752 5.59637 18.4889C5.77218 18.2258 5.86602 17.9165 5.86602 17.6C5.86602 17.1757 5.69745 16.7687 5.39739 16.4686C5.09733 16.1686 4.69036 16 4.26602 16ZM4.26602 18.1333C4.16053 18.1333 4.05742 18.1021 3.96971 18.0435C3.88201 17.9848 3.81365 17.9016 3.77328 17.8041C3.73291 17.7066 3.72235 17.5994 3.74293 17.496C3.76351 17.3925 3.8143 17.2975 3.88889 17.2229C3.96348 17.1483 4.05851 17.0975 4.16197 17.0769C4.26542 17.0563 4.37266 17.0669 4.47011 17.1073C4.56757 17.1476 4.65086 17.216 4.70947 17.3037C4.76807 17.3914 4.79935 17.4945 4.79935 17.6C4.79935 17.7414 4.74316 17.8771 4.64314 17.9771C4.54312 18.0771 4.40747 18.1333 4.26602 18.1333Z" fill="white"/>
<path d="M8.53359 16C8.21714 16 7.9078 16.0938 7.64468 16.2696C7.38156 16.4455 7.17649 16.6953 7.05539 16.9877C6.93429 17.2801 6.9026 17.6018 6.96434 17.9121C7.02607 18.2225 7.17846 18.5076 7.40222 18.7314C7.62599 18.9551 7.91108 19.1075 8.22145 19.1693C8.53182 19.231 8.85353 19.1993 9.14589 19.0782C9.43825 18.9571 9.68814 18.752 9.86395 18.4889C10.0398 18.2258 10.1336 17.9165 10.1336 17.6C10.1336 17.1757 9.96502 16.7687 9.66497 16.4686C9.36491 16.1686 8.95794 16 8.53359 16ZM8.53359 18.1333C8.42811 18.1333 8.325 18.1021 8.23729 18.0435C8.14958 17.9848 8.08123 17.9016 8.04086 17.8041C8.00049 17.7066 7.98993 17.5994 8.01051 17.496C8.03109 17.3925 8.08188 17.2975 8.15647 17.2229C8.23106 17.1483 8.32609 17.0975 8.42955 17.0769C8.533 17.0563 8.64024 17.0669 8.73769 17.1073C8.83515 17.1476 8.91844 17.216 8.97705 17.3037C9.03565 17.3914 9.06693 17.4945 9.06693 17.6C9.06693 17.7414 9.01074 17.8771 8.91072 17.9771C8.8107 18.0771 8.67504 18.1333 8.53359 18.1333Z" fill="white"/>
</g>
<defs>
<clipPath id="clip0_405_740">
<rect width="32" height="32" fill="white"/>
</clipPath>
</defs>
</svg>
