<svg width="32" height="32" viewBox="0 0 32 32" fill="none" xmlns="http://www.w3.org/2000/svg">
<path d="M15.3245 2.42336L11.2595 1.33203L11.2168 2.01703C11.2168 3.5577 12.4708 4.8117 14.0125 4.8117H19.1758C20.7185 4.8117 21.9725 3.5577 21.9725 2.01703V1.34636L17.4725 2.4417C16.7695 2.61836 16.0265 2.61236 15.3245 2.42336Z" fill="white"/>
<path d="M28.4735 26.2339L28.1819 26.0342C28.0802 26.0789 27.9675 26.1059 27.8495 26.1059H22.6465C22.1862 26.1059 21.8132 25.7319 21.8132 25.2725C21.8132 24.8132 22.1862 24.4392 22.6465 24.4392H26.9339L23.6832 11.3752C23.4475 10.1475 22.6445 9.1762 21.5249 8.7332L18.4399 7.50753L20.6449 11.3305C20.8745 11.7289 20.7372 12.2389 20.3399 12.4685C20.2079 12.5439 20.0655 12.5802 19.9242 12.5802C19.6365 12.5802 19.3562 12.4299 19.2015 12.1635L16.4032 7.31086L13.6045 12.1639C13.4502 12.4302 13.1705 12.5805 12.8832 12.5805C12.7419 12.5805 12.5985 12.5439 12.4685 12.4689C12.0702 12.2392 11.9329 11.7292 12.1625 11.3309L14.6492 7.01953L10.7795 8.42253C9.52154 8.87986 8.64454 9.98753 8.4932 11.3185L7.7942 15.8385C7.62654 16.9199 7.12754 17.9015 6.3532 18.6779C5.80054 19.2285 5.44887 19.9602 5.36154 20.7365L5.01387 23.8482C4.9122 24.7649 4.41854 25.5939 3.6622 26.1205C3.00154 26.5799 2.69287 27.1592 2.68254 27.7789L2.6682 28.7055C2.6602 29.2259 2.8562 29.7175 3.22187 30.0895C3.5872 30.4612 4.07587 30.6645 4.5972 30.6645H27.4025C27.9249 30.6645 28.4135 30.4592 28.7795 30.0872C29.1452 29.7132 29.3415 29.2195 29.3312 28.6972L29.3119 27.7865C29.2995 27.1649 28.9855 26.5855 28.4735 26.2339Z" fill="white"/>
</svg>
