<svg width="32" height="32" viewBox="0 0 32 32" fill="none" xmlns="http://www.w3.org/2000/svg">
<path d="M17.0123 0.125C16.7726 0.125 16.5484 0.243018 16.4127 0.440653C16.0162 1.01814 6.70117 14.6637 6.70117 21.5653C6.70117 27.2509 11.3267 31.8764 17.0122 31.8764C22.6977 31.8764 27.3231 27.2509 27.3231 21.5653C27.3231 14.6637 18.0082 1.01814 17.6117 0.440653C17.4762 0.243115 17.2519 0.125 17.0123 0.125ZM17.0123 30.4217C12.1288 30.4217 8.15589 26.4488 8.15589 21.5653C8.15589 16.076 14.9317 5.33244 17.0123 2.16331C19.0929 5.33244 25.8686 16.0759 25.8686 21.5653C25.8686 26.4488 21.8956 30.4217 17.0123 30.4217Z" fill="white"/>
<path d="M16.2852 27.7564C16.2852 28.158 16.6107 28.4837 17.0125 28.4837C20.8265 28.4837 23.9295 25.3809 23.9295 21.5672C23.9295 21.1655 23.6039 20.8398 23.2022 20.8398C22.8004 20.8398 22.4749 21.1655 22.4749 21.5672C22.4749 24.5789 20.0244 27.0291 17.0125 27.0291C16.6107 27.0291 16.2852 27.3547 16.2852 27.7564Z" fill="white"/>
<path d="M31.2723 3.0704H29.859V1.657C29.859 1.25533 29.5335 0.929688 29.1317 0.929688C28.7299 0.929688 28.4044 1.25533 28.4044 1.657V3.0704H26.991C26.5892 3.0704 26.2637 3.39604 26.2637 3.79771C26.2637 4.19938 26.5892 4.52502 26.991 4.52502H28.4044V5.93843C28.4044 6.3401 28.7299 6.66574 29.1317 6.66574C29.5335 6.66574 29.859 6.3401 29.859 5.93843V4.52502H31.2723C31.6741 4.52502 31.9996 4.19938 31.9996 3.79771C31.9996 3.39604 31.6741 3.0704 31.2723 3.0704Z" fill="white"/>
<path d="M5.00874 24.9727H3.59534V23.5593C3.59534 23.1577 3.26979 22.832 2.86803 22.832C2.46626 22.832 2.14072 23.1577 2.14072 23.5593V24.9727H0.72731C0.325544 24.9727 0 25.2984 0 25.7001C0 26.1017 0.325544 26.4274 0.72731 26.4274H2.14072V27.8408C2.14072 28.2424 2.46626 28.5681 2.86803 28.5681C3.26979 28.5681 3.59534 28.2424 3.59534 27.8408V26.4274H5.00874C5.41051 26.4274 5.73605 26.1017 5.73605 25.7001C5.73605 25.2984 5.41051 24.9727 5.00874 24.9727Z" fill="white"/>
</svg>
