<svg width="32" height="32" viewBox="0 0 32 32" fill="none" xmlns="http://www.w3.org/2000/svg">
<g clip-path="url(#clip0_405_1265)">
<path d="M16.5938 30.7656H24.2811" stroke="white" stroke-width="1.64062" stroke-miterlimit="10" stroke-linecap="round" stroke-linejoin="round"/>
<path d="M26.3544 30.7659H30.9628C31.3523 30.7659 31.5319 30.4502 31.5319 30.0607V3.16228C31.5319 2.77278 31.3523 2.45703 30.9628 2.45703H28.5276C28.1381 2.45703 27.8224 2.77278 27.8224 3.16228V10.1685H25.2797L24.9396 7.83916C24.8889 7.49272 24.5918 7.23578 24.2417 7.23578H19.6998C19.3497 7.23578 19.0526 7.49266 19.0019 7.83916L18.6617 10.1685H16.1191V3.16228C16.1191 2.77278 15.8034 2.45703 15.4139 2.45703H12.9787C12.5892 2.45703 12.2734 2.77278 12.2734 3.16228V13.7466" stroke="white" stroke-width="1.64062" stroke-miterlimit="10" stroke-linecap="round" stroke-linejoin="round"/>
<path d="M21.0156 9.39453H22.9271" stroke="white" stroke-width="1.64062" stroke-miterlimit="10" stroke-linecap="round" stroke-linejoin="round"/>
<path d="M3.64258 3.54297V5.41347" stroke="white" stroke-width="1.64062" stroke-miterlimit="10" stroke-linecap="round" stroke-linejoin="round"/>
<path d="M6.80273 5.41347V3.54297" stroke="white" stroke-width="1.64062" stroke-miterlimit="10" stroke-linecap="round" stroke-linejoin="round"/>
<path d="M2.875 3.19137V1.93962C2.875 1.55012 3.19075 1.23438 3.58025 1.23438H6.86588C7.25537 1.23438 7.57113 1.55012 7.57113 1.93962V3.19144C7.57113 3.38619 7.41325 3.54406 7.2185 3.54406H3.22762C3.03287 3.54406 2.875 3.38612 2.875 3.19137Z" stroke="white" stroke-width="1.64062" stroke-miterlimit="10" stroke-linecap="round" stroke-linejoin="round"/>
<path d="M9.48894 30.5973C9.32431 30.7029 9.1285 30.7642 8.91844 30.7642H1.52669C0.942438 30.7642 0.46875 30.2905 0.46875 29.7062V18.39C0.46875 17.8057 0.942375 17.332 1.52669 17.332H7.39725" stroke="white" stroke-width="1.64062" stroke-miterlimit="10" stroke-linecap="round" stroke-linejoin="round"/>
<path d="M1.52669 17.3333C0.942438 17.3333 0.46875 16.8597 0.46875 16.2754V12.722C0.46875 12.1378 0.942375 11.6641 1.52669 11.6641" stroke="white" stroke-width="1.64062" stroke-miterlimit="10" stroke-linecap="round" stroke-linejoin="round"/>
<path d="M8.91797 11.6641C9.50222 11.6641 9.97591 12.1377 9.97591 12.722V14.035" stroke="white" stroke-width="1.64062" stroke-miterlimit="10" stroke-linecap="round" stroke-linejoin="round"/>
<path d="M8.43356 11.6636H8.91844C9.50269 11.6636 9.97637 11.1899 9.97637 10.6056V8.60344C9.97637 6.85062 8.55544 5.42969 6.80263 5.42969H3.6425C1.88969 5.42969 0.46875 6.85062 0.46875 8.60344V10.6056C0.46875 11.1899 0.942375 11.6636 1.52669 11.6636H6.36094" stroke="white" stroke-width="1.64062" stroke-miterlimit="10" stroke-linecap="round" stroke-linejoin="round"/>
<path d="M8.70016 23.8003L8.23828 18.5234" stroke="white" stroke-width="1.64062" stroke-miterlimit="10" stroke-linecap="round" stroke-linejoin="round"/>
<path d="M8.88086 25.864L9.25586 30.144C9.28648 30.4952 9.58086 30.7652 9.93336 30.7652H16.5927C16.9452 30.7652 17.2396 30.4952 17.2709 30.144L17.792 24.1914" stroke="white" stroke-width="1.64062" stroke-miterlimit="10" stroke-linecap="round" stroke-linejoin="round"/>
<path d="M8.83984 16.0605L9.92609 14.0973C10.0455 13.8805 10.2736 13.7461 10.5211 13.7461H16.0055C16.253 13.7461 16.4811 13.8805 16.6011 14.0973L17.6867 16.0605" stroke="white" stroke-width="1.64062" stroke-miterlimit="10" stroke-linecap="round" stroke-linejoin="round"/>
<path d="M17.7 18.5206H8.07692C7.70111 18.5206 7.39648 18.216 7.39648 17.8402V16.739C7.39648 16.3632 7.70111 16.0586 8.07692 16.0586H18.45C18.8258 16.0586 19.1304 16.3632 19.1304 16.739V17.4652" stroke="white" stroke-width="1.64062" stroke-miterlimit="10" stroke-linecap="round" stroke-linejoin="round"/>
<path d="M20.9383 25.572C23.2968 25.572 25.2087 23.6601 25.2087 21.3016C25.2087 18.9432 23.2968 17.0312 20.9383 17.0312C18.5799 17.0312 16.668 18.9432 16.668 21.3016C16.668 23.6601 18.5799 25.572 20.9383 25.572Z" stroke="white" stroke-width="1.64062" stroke-miterlimit="10" stroke-linecap="round" stroke-linejoin="round"/>
<path d="M23.0768 20.9219C23.4147 21.7434 23.0227 22.6834 22.2012 23.0213" stroke="white" stroke-width="1.64062" stroke-miterlimit="10" stroke-linecap="round" stroke-linejoin="round"/>
<path d="M22.6934 23.2956L21.9512 23.125L22.1218 22.3828" stroke="white" stroke-width="1.64062" stroke-miterlimit="10" stroke-linecap="round" stroke-linejoin="round"/>
<path d="M20.1694 23.2955C19.3018 23.1046 18.7532 22.2465 18.9442 21.3789" stroke="white" stroke-width="1.64062" stroke-miterlimit="10" stroke-linecap="round" stroke-linejoin="round"/>
<path d="M18.4395 21.6296L19.0029 21.1172L19.5152 21.6806" stroke="white" stroke-width="1.64062" stroke-miterlimit="10" stroke-linecap="round" stroke-linejoin="round"/>
<path d="M19.707 19.5565C20.2923 18.8883 21.3085 18.821 21.9768 19.4063" stroke="white" stroke-width="1.64062" stroke-miterlimit="10" stroke-linecap="round" stroke-linejoin="round"/>
<path d="M22.0025 18.8438L22.18 19.5843L21.4395 19.7618" stroke="white" stroke-width="1.64062" stroke-miterlimit="10" stroke-linecap="round" stroke-linejoin="round"/>
</g>
<defs>
<clipPath id="clip0_405_1265">
<rect width="32" height="32" fill="white"/>
</clipPath>
</defs>
</svg>
