<svg width="32" height="32" viewBox="0 0 32 32" fill="none" xmlns="http://www.w3.org/2000/svg">
<g clip-path="url(#clip0_405_1242)">
<path d="M25.5174 15.0466C28.0253 15.0466 30.0583 13.0136 30.0583 10.5057C30.0583 7.99786 28.0253 5.96484 25.5174 5.96484C23.0096 5.96484 20.9766 7.99786 20.9766 10.5057C20.9766 13.0136 23.0096 15.0466 25.5174 15.0466Z" stroke="white" stroke-width="1.64223" stroke-miterlimit="10" stroke-linecap="round" stroke-linejoin="round"/>
<path d="M25.5174 26.0349C28.0253 26.0349 30.0583 24.0019 30.0583 21.494C30.0583 18.9861 28.0253 16.9531 25.5174 16.9531C23.0096 16.9531 20.9766 18.9861 20.9766 21.494C20.9766 24.0019 23.0096 26.0349 25.5174 26.0349Z" stroke="white" stroke-width="1.64223" stroke-miterlimit="10" stroke-linecap="round" stroke-linejoin="round"/>
<path d="M15.9999 0.46875C15.4342 0.46875 14.893 0.572727 14.3937 0.762036C13.9965 0.912684 13.6979 1.2482 13.5905 1.65929C13.4701 2.12005 13.1103 2.4799 12.6495 2.60027C12.2384 2.70762 11.9029 3.00623 11.7523 3.40349C11.563 3.90279 11.459 4.44394 11.459 5.00962C11.459 7.51751 13.492 9.55049 15.9999 9.55049C18.5077 9.55049 20.5407 7.51745 20.5407 5.00962C20.5407 2.5018 18.5077 0.46875 15.9999 0.46875Z" stroke="white" stroke-width="1.64223" stroke-miterlimit="10" stroke-linecap="round" stroke-linejoin="round"/>
<path d="M15.9999 11.4453C15.4342 11.4453 14.893 11.5493 14.3937 11.7386C13.9965 11.8892 13.6979 12.2248 13.5905 12.6359C13.4701 13.0966 13.1103 13.4565 12.6495 13.5768C12.2384 13.6842 11.9029 13.9828 11.7523 14.3801C11.563 14.8794 11.459 15.4205 11.459 15.9862C11.459 18.4941 13.492 20.5271 15.9999 20.5271C18.5077 20.5271 20.5407 18.494 20.5407 15.9862C20.5407 13.4784 18.5077 11.4453 15.9999 11.4453Z" stroke="white" stroke-width="1.64223" stroke-miterlimit="10" stroke-linecap="round" stroke-linejoin="round"/>
<path d="M6.48228 16.9531C5.9166 16.9531 5.37538 17.0571 4.87615 17.2464C4.47888 17.3971 4.18028 17.7326 4.07293 18.1437C3.95256 18.6044 3.59271 18.9643 3.13194 19.0846C2.72085 19.192 2.38534 19.4906 2.23469 19.8879C2.04538 20.3871 1.94141 20.9283 1.94141 21.494C1.94141 24.0019 3.97445 26.0349 6.48228 26.0349C8.9901 26.0349 11.0231 24.0018 11.0231 21.494C11.0231 18.9862 8.99016 16.9531 6.48228 16.9531Z" stroke="white" stroke-width="1.64223" stroke-miterlimit="10" stroke-linecap="round" stroke-linejoin="round"/>
<path d="M12.1952 24.5125C11.7302 25.2251 11.459 26.0757 11.459 26.9901C11.459 29.498 13.492 31.531 15.9999 31.531C18.5077 31.531 20.5407 29.4979 20.5407 26.9901C20.5407 24.4823 18.5077 22.4492 15.9999 22.4492C15.0855 22.4492 14.2349 22.7204 13.5223 23.1854" stroke="white" stroke-width="1.64223" stroke-miterlimit="10" stroke-linecap="round" stroke-linejoin="round"/>
<path d="M2.67763 8.02811C2.21261 8.74074 1.94141 9.59132 1.94141 10.5057C1.94141 13.0136 3.97445 15.0466 6.48228 15.0466C8.9901 15.0466 11.0231 13.0135 11.0231 10.5057C11.0231 7.99789 8.9901 5.96484 6.48228 5.96484C5.56788 5.96484 4.7173 6.23605 4.00473 6.70106" stroke="white" stroke-width="1.64223" stroke-miterlimit="10" stroke-linecap="round" stroke-linejoin="round"/>
</g>
<defs>
<clipPath id="clip0_405_1242">
<rect width="32" height="32" fill="white"/>
</clipPath>
</defs>
</svg>
