<svg width="32" height="32" viewBox="0 0 32 32" fill="none" xmlns="http://www.w3.org/2000/svg">
<g clip-path="url(#clip0_405_1019)">
<path d="M31.0625 8.5625H29.375C28.8572 8.5625 28.4375 8.98225 28.4375 9.5V17.5C28.4375 18.0178 28.8572 18.4375 29.375 18.4375H31.0625C31.5803 18.4375 32 18.0178 32 17.5V9.5C32 8.98225 31.5803 8.5625 31.0625 8.5625Z" fill="#298600"/>
<path d="M2.625 8.5625H0.9375C0.41975 8.5625 0 8.98225 0 9.5V17.5C0 18.0178 0.41975 18.4375 0.9375 18.4375H2.625C3.14275 18.4375 3.5625 18.0178 3.5625 17.5V9.5C3.5625 8.98225 3.14275 8.5625 2.625 8.5625Z" fill="#298600"/>
<path d="M5.4375 11.4375H26.5625V15.5625H5.4375V11.4375Z" fill="#298600"/>
<path d="M16 0.5625C11.6434 0.5625 7.78306 2.72719 5.4375 6.03737V9.5625H26.5625V6.03737C24.2169 2.72719 20.3566 0.5625 16 0.5625Z" fill="#298600"/>
<path d="M6.5625 24.9062V30.5012C6.5625 31.0189 6.98225 31.4387 7.5 31.4387H10.375C10.7785 31.4387 11.1368 31.1804 11.2644 30.7976L11.5507 29.9387H20.4492L20.7356 30.7976C20.8632 31.1804 21.2215 31.4387 21.625 31.4387H24.5C25.0178 31.4387 25.4375 31.0189 25.4375 30.5012V24.9062C22.8079 27.0805 19.4756 28.3137 16 28.3137C12.5244 28.3137 9.19213 27.0805 6.5625 24.9062Z" fill="#298600"/>
<path d="M5.4375 20.9626C7.78306 24.2728 11.6434 26.4375 16 26.4375C20.3566 26.4375 24.2169 24.2728 26.5625 20.9626V17.4375H5.4375V20.9626ZM20 20.8122C20.5178 20.8122 20.9375 21.2319 20.9375 21.7497C20.9375 22.2674 20.5178 22.6872 20 22.6872C19.4822 22.6872 19.0625 22.2674 19.0625 21.7497C19.0625 21.2319 19.4822 20.8122 20 20.8122ZM16 21.8126C16.5178 21.8126 16.9375 22.2324 16.9375 22.7501C16.9375 23.2679 16.5178 23.6876 16 23.6876C15.4822 23.6876 15.0625 23.2679 15.0625 22.7501C15.0625 22.2324 15.4822 21.8126 16 21.8126ZM12 20.8122C12.5178 20.8122 12.9375 21.2319 12.9375 21.7497C12.9375 22.2674 12.5178 22.6872 12 22.6872C11.4822 22.6872 11.0625 22.2674 11.0625 21.7497C11.0625 21.2319 11.4822 20.8122 12 20.8122Z" fill="#298600"/>
</g>
<defs>
<clipPath id="clip0_405_1019">
<rect width="32" height="32" fill="white"/>
</clipPath>
</defs>
</svg>
