<svg width="16" height="16" viewBox="0 0 16 16" fill="none" xmlns="http://www.w3.org/2000/svg">
<g clip-path="url(#clip0_324_500)">
<path d="M11.7246 10.4658C11.5852 10.326 11.4196 10.215 11.2373 10.1393C11.055 10.0636 10.8595 10.0246 10.6621 10.0246C10.4647 10.0246 10.2692 10.0636 10.0869 10.1393C9.90454 10.215 9.73895 10.326 9.59959 10.4658L8.87459 11.1908C8.05829 10.6727 7.302 10.0657 6.61959 9.3808C5.93471 8.6984 5.32766 7.9421 4.80959 7.1258L5.53459 6.4008C5.67443 6.26145 5.78539 6.09586 5.8611 5.91353C5.9368 5.7312 5.97578 5.53573 5.97578 5.3383C5.97578 5.14088 5.9368 4.9454 5.8611 4.76308C5.78539 4.58075 5.67443 4.41516 5.53459 4.2758L4.11959 2.8658C3.98221 2.7255 3.81801 2.61425 3.63678 2.53866C3.45554 2.46308 3.26096 2.4247 3.06459 2.4258C2.86683 2.42532 2.67093 2.46395 2.48816 2.53946C2.30538 2.61497 2.13934 2.72588 1.99959 2.8658L1.31959 3.5408C0.995478 3.88929 0.753579 4.30598 0.611675 4.76024C0.469772 5.2145 0.431473 5.69479 0.499593 6.1658C0.659593 8.0408 1.88959 10.2958 3.78459 12.1958C5.67959 14.0958 7.95959 15.3208 9.83459 15.5008C9.97449 15.5083 10.1147 15.5083 10.2546 15.5008C10.6582 15.5177 11.0611 15.4539 11.4398 15.3131C11.8184 15.1723 12.1651 14.9574 12.4596 14.6808L13.1346 14.0008C13.2745 13.8611 13.3854 13.695 13.4609 13.5122C13.5365 13.3295 13.5751 13.1336 13.5746 12.9358C13.5757 12.7394 13.5373 12.5449 13.4617 12.3636C13.3861 12.1824 13.2749 12.0182 13.1346 11.8808L11.7246 10.4658Z" fill="#72D347"/>
<path d="M13.3 2.69501C12.6051 1.9975 11.7791 1.44443 10.8694 1.06771C9.95978 0.690978 8.98456 0.498039 8 0.500015C7.86739 0.500015 7.74021 0.552693 7.64645 0.646462C7.55268 0.74023 7.5 0.867407 7.5 1.00002C7.5 1.13262 7.55268 1.2598 7.64645 1.35357C7.74021 1.44734 7.86739 1.50002 8 1.50002C8.85824 1.49998 9.70799 1.66992 10.5002 2.00001C11.2924 2.3301 12.0114 2.81381 12.6157 3.42323C13.2201 4.03264 13.6977 4.7557 14.0211 5.55068C14.3445 6.34565 14.5073 7.19681 14.5 8.05502C14.5 8.18762 14.5527 8.3148 14.6464 8.40857C14.7402 8.50234 14.8674 8.55502 15 8.55502C15.1326 8.55502 15.2598 8.50234 15.3536 8.40857C15.4473 8.3148 15.5 8.18762 15.5 8.05502C15.5096 7.05998 15.3199 6.0731 14.942 5.15255C14.5642 4.23199 14.0059 3.3964 13.3 2.69501Z" fill="#72D347"/>
<path d="M10.4548 5.55516C10.7386 5.8372 10.9631 6.17315 11.1151 6.54324C11.2671 6.91333 11.3435 7.31009 11.3398 7.71016C11.3398 7.84276 11.3925 7.96994 11.4863 8.06371C11.5801 8.15748 11.7072 8.21016 11.8398 8.21016C11.9725 8.21016 12.0996 8.15748 12.1934 8.06371C12.2872 7.96994 12.3398 7.84276 12.3398 7.71016C12.3465 7.18068 12.2479 6.65515 12.0498 6.16406C11.8518 5.67297 11.5582 5.2261 11.1861 4.84935C10.814 4.4726 10.3708 4.17349 9.88221 3.96935C9.39362 3.76521 8.86936 3.66011 8.33984 3.66016C8.20724 3.66016 8.08006 3.71283 7.98629 3.8066C7.89252 3.90037 7.83984 4.02755 7.83984 4.16016C7.83984 4.29276 7.89252 4.41994 7.98629 4.51371C8.08006 4.60748 8.20724 4.66016 8.33984 4.66016C8.73388 4.66312 9.12348 4.74369 9.48638 4.89726C9.84927 5.05083 10.1784 5.27438 10.4548 5.55516Z" fill="#72D347"/>
</g>
<defs>
<clipPath id="clip0_324_500">
<rect width="16" height="16" fill="white"/>
</clipPath>
</defs>
</svg>
