<svg width="24" height="24" viewBox="0 0 24 24" fill="none" xmlns="http://www.w3.org/2000/svg">
<g clip-path="url(#clip0_324_779)">
<path d="M12 24C18.6274 24 24 18.6274 24 12C24 5.37258 18.6274 0 12 0C5.37258 0 0 5.37258 0 12C0 18.6274 5.37258 24 12 24Z" fill="#F20000"/>
<path d="M17.719 9.11522C17.479 8.36995 16.6848 7.92943 15.9474 7.8268C13.319 7.54732 10.6684 7.54732 8.04005 7.8268C7.309 7.92943 6.51479 8.37627 6.27479 9.11522C5.90059 11.0218 5.90059 12.9829 6.27479 14.8894C6.5211 15.6331 7.31532 16.0752 8.05268 16.1778C10.6811 16.4557 13.3316 16.4557 15.9601 16.1778C16.6911 16.0752 17.4853 15.6268 17.7253 14.8894C18.0974 12.9825 18.0953 11.0214 17.719 9.11522ZM10.5648 14.3005V9.70258L14.3085 12.0015C13.0469 12.7768 11.8216 13.5315 10.5648 14.3005Z" fill="white"/>
</g>
<defs>
<clipPath id="clip0_324_779">
<rect width="24" height="24" fill="white"/>
</clipPath>
</defs>
</svg>
