<svg width="13" height="13" viewBox="0 0 13 13" fill="none" xmlns="http://www.w3.org/2000/svg">
<path d="M12.5008 0.666667V7.33333C12.5008 7.51014 12.4305 7.67971 12.3055 7.80474C12.1805 7.92976 12.0109 8 11.8341 8C11.6573 8 11.4877 7.92976 11.3627 7.80474C11.2377 7.67971 11.1674 7.51014 11.1674 7.33333V2.27333L1.64077 11.8067C1.51524 11.9322 1.34498 12.0027 1.16744 12.0027C0.989907 12.0027 0.819644 11.9322 0.694108 11.8067C0.568572 11.6811 0.498047 11.5109 0.498047 11.3333C0.498047 11.1558 0.568572 10.9855 0.694108 10.86L10.2274 1.33333H5.16744C4.99063 1.33333 4.82106 1.2631 4.69604 1.13807C4.57101 1.01305 4.50077 0.843478 4.50077 0.666667C4.50077 0.489856 4.57101 0.320286 4.69604 0.195262C4.82106 0.0702379 4.99063 0 5.16744 0H11.8341C12.0109 0 12.1805 0.0702379 12.3055 0.195262C12.4305 0.320286 12.5008 0.489856 12.5008 0.666667Z" fill="#342828"/>
</svg>
