<svg width="10" height="10" viewBox="0 0 10 10" fill="none" xmlns="http://www.w3.org/2000/svg">
<path d="M8.04906 6.27518V3.72201C8.36527 3.68885 8.66327 3.5506 8.90002 3.32721C9.13759 3.1038 9.30149 2.80669 9.36854 2.47859C9.43559 2.15049 9.40247 1.80828 9.27499 1.50115C9.14668 1.19402 8.92899 0.937764 8.65499 0.769231C8.38017 0.600697 8.06147 0.528544 7.74609 0.563142C7.42987 0.597748 7.13271 0.737319 6.8968 0.961818C6.66005 1.18631 6.4978 1.48416 6.43158 1.81256C6.36535 2.14097 6.40013 2.48301 6.52926 2.78956L3.88285 4.38806C3.74958 4.04979 3.50953 3.77084 3.20325 3.59864C2.89697 3.42644 2.54351 3.37166 2.20412 3.44368C1.8639 3.5156 1.55762 3.70985 1.33826 3.99335C1.11807 4.27685 0.998047 4.6321 0.998047 4.99864C0.998047 5.36518 1.11807 5.72043 1.33826 6.00384C1.55762 6.28734 1.8639 6.48159 2.20412 6.5536C2.54351 6.62553 2.89697 6.57075 3.20325 6.39855C3.50953 6.22644 3.74958 5.94749 3.88285 5.60913L6.52926 7.20766C6.40013 7.51383 6.36619 7.85534 6.43241 8.18312C6.49863 8.51089 6.66088 8.80813 6.8968 9.03204C7.13271 9.25604 7.42988 9.39525 7.74526 9.42973C8.06065 9.4642 8.37851 9.3921 8.6525 9.22384C8.9265 9.05567 9.14338 8.7999 9.27168 8.4933C9.39916 8.1867 9.43228 7.8451 9.36523 7.51759C9.29818 7.18999 9.13511 6.89328 8.89836 6.67006C8.66162 6.44685 8.36445 6.3086 8.04906 6.27518ZM3.97142 5.29833C4.00701 5.10031 4.00701 4.89688 3.97142 4.69886L6.67909 3.06391C6.80326 3.24786 6.96218 3.40176 7.14677 3.51525C7.33137 3.62874 7.53667 3.69926 7.74941 3.72201V6.27518C7.53667 6.29801 7.33137 6.36845 7.14677 6.48194C6.96218 6.59551 6.80326 6.74934 6.67909 6.93335L3.97142 5.29833Z" fill="white"/>
</svg>
