<svg width="24" height="24" viewBox="0 0 24 24" fill="none" xmlns="http://www.w3.org/2000/svg">
<g clip-path="url(#clip0_118_2170)">
<path d="M12 24C18.6274 24 24 18.6274 24 12C24 5.37258 18.6274 0 12 0C5.37258 0 0 5.37258 0 12C0 18.6274 5.37258 24 12 24Z" fill="url(#paint0_linear_118_2170)"/>
<path d="M14.4253 6H9.57474C8.62704 6.00125 7.71852 6.37828 7.0484 7.0484C6.37828 7.71852 6.00125 8.62704 6 9.57474V14.4253C6.00125 15.373 6.37828 16.2815 7.0484 16.9516C7.71852 17.6217 8.62704 17.9987 9.57474 18H14.4253C15.3731 17.9992 16.2818 17.6223 16.9521 16.9521C17.6223 16.2818 17.9992 15.3731 18 14.4253V9.57474C17.9987 8.62704 17.6217 7.71852 16.9516 7.0484C16.2815 6.37828 15.373 6.00125 14.4253 6ZM16.7937 14.4253C16.7937 15.0534 16.5442 15.6558 16.1 16.1C15.6558 16.5442 15.0534 16.7937 14.4253 16.7937H9.57474C8.94659 16.7937 8.34418 16.5442 7.90001 16.1C7.45584 15.6558 7.20632 15.0534 7.20632 14.4253V9.57474C7.20632 8.94659 7.45584 8.34418 7.90001 7.90001C8.34418 7.45584 8.94659 7.20632 9.57474 7.20632H14.4253C15.0534 7.20632 15.6558 7.45584 16.1 7.90001C16.5442 8.34418 16.7937 8.94659 16.7937 9.57474V14.4253Z" fill="white"/>
<path d="M12.0003 8.89844C11.3862 8.89813 10.7858 9.07996 10.2751 9.42093C9.76439 9.76191 9.36628 10.2467 9.13113 10.814C8.89598 11.3813 8.83438 12.0056 8.9541 12.6079C9.07383 13.2102 9.36951 13.7634 9.80373 14.1977C10.238 14.6319 10.7912 14.9276 11.3935 15.0473C11.9958 15.167 12.6201 15.1054 13.1874 14.8703C13.7547 14.6351 14.2395 14.237 14.5805 13.7263C14.9214 13.2155 15.1033 12.6152 15.103 12.0011C15.1021 11.1785 14.775 10.3898 14.1933 9.8081C13.6116 9.22643 12.8229 8.89927 12.0003 8.89844ZM12.0003 13.8958C11.6256 13.8958 11.2593 13.7847 10.9477 13.5765C10.6361 13.3683 10.3932 13.0724 10.2498 12.7262C10.1064 12.3799 10.0689 11.999 10.142 11.6314C10.2151 11.2639 10.3956 10.9263 10.6605 10.6613C10.9255 10.3963 11.2631 10.2158 11.6307 10.1427C11.9982 10.0696 12.3792 10.1072 12.7254 10.2506C13.0716 10.394 13.3675 10.6368 13.5757 10.9484C13.7839 11.26 13.8951 11.6263 13.8951 12.0011C13.8951 12.5036 13.6954 12.9855 13.3401 13.3409C12.9848 13.6962 12.5028 13.8958 12.0003 13.8958Z" fill="white"/>
<path d="M15.1209 9.66364C15.5447 9.66364 15.8883 9.32008 15.8883 8.89627C15.8883 8.47247 15.5447 8.12891 15.1209 8.12891C14.6971 8.12891 14.3535 8.47247 14.3535 8.89627C14.3535 9.32008 14.6971 9.66364 15.1209 9.66364Z" fill="white"/>
</g>
<defs>
<linearGradient id="paint0_linear_118_2170" x1="12" y1="23.8895" x2="12" y2="1.62632" gradientUnits="userSpaceOnUse">
<stop stop-color="#E09B3D"/>
<stop offset="0.24" stop-color="#C74C4D"/>
<stop offset="0.65" stop-color="#C21975"/>
<stop offset="1" stop-color="#7024C4"/>
</linearGradient>
<clipPath id="clip0_118_2170">
<rect width="24" height="24" fill="white"/>
</clipPath>
</defs>
</svg>
