<svg width="16" height="16" viewBox="0 0 16 16" fill="none" xmlns="http://www.w3.org/2000/svg">
<mask id="mask0_116_1034" style="mask-type:alpha" maskUnits="userSpaceOnUse" x="0" y="0" width="16" height="16">
<rect width="16" height="16" fill="#D9D9D9"/>
</mask>
<g mask="url(#mask0_116_1034)">
<path d="M2.66732 13.3346C2.30065 13.3346 1.98687 13.2042 1.72598 12.9433C1.46465 12.682 1.33398 12.368 1.33398 12.0013V4.0013C1.33398 3.63464 1.46465 3.32086 1.72598 3.05997C1.98687 2.79864 2.30065 2.66797 2.66732 2.66797H13.334C13.7007 2.66797 14.0147 2.79864 14.276 3.05997C14.5369 3.32086 14.6673 3.63464 14.6673 4.0013V12.0013C14.6673 12.368 14.5369 12.682 14.276 12.9433C14.0147 13.2042 13.7007 13.3346 13.334 13.3346H2.66732ZM8.00065 8.66797L13.334 5.33464V4.0013L8.00065 7.33464L2.66732 4.0013V5.33464L8.00065 8.66797Z" fill="white"/>
</g>
</svg>
