<svg width="16" height="16" viewBox="0 0 16 16" fill="none" xmlns="http://www.w3.org/2000/svg">
<path d="M13.3335 7.33136H14.6668C14.6668 3.91136 12.0848 1.33203 8.66016 1.33203V2.66536C11.3682 2.66536 13.3335 4.62736 13.3335 7.33136Z" fill="white"/>
<path d="M8.66685 5.33479C10.0689 5.33479 10.6669 5.93279 10.6669 7.33479H12.0002C12.0002 5.18479 10.8169 4.00146 8.66685 4.00146V5.33479ZM10.9482 8.96346C10.8201 8.84703 10.6518 8.78493 10.4787 8.79028C10.3057 8.79563 10.1415 8.86801 10.0209 8.99213L8.42552 10.6328C8.04152 10.5595 7.26952 10.3188 6.47485 9.52613C5.68019 8.73079 5.43952 7.9568 5.36819 7.57546L7.00752 5.97946C7.1318 5.85888 7.20428 5.69468 7.20963 5.5216C7.21498 5.34852 7.15278 5.18016 7.03619 5.05213L4.57285 2.34346C4.45622 2.21503 4.29411 2.13713 4.12096 2.1263C3.94781 2.11547 3.77725 2.17257 3.64552 2.28546L2.19885 3.52613C2.0836 3.64181 2.0148 3.79576 2.00552 3.95879C1.99552 4.12546 1.80485 8.07346 4.86619 11.1361C7.53685 13.8061 10.8822 14.0015 11.8035 14.0015C11.9382 14.0015 12.0209 13.9975 12.0429 13.9961C12.2059 13.987 12.3597 13.9179 12.4749 13.8021L13.7149 12.3548C13.8278 12.2231 13.885 12.0526 13.8743 11.8795C13.8636 11.7063 13.7859 11.5442 13.6575 11.4275L10.9482 8.96346Z" fill="white"/>
</svg>
