<svg width="13" height="13" viewBox="0 0 13 13" fill="none" xmlns="http://www.w3.org/2000/svg">
<path d="M13.0008 0.666667V7.33333C13.0008 7.51014 12.9305 7.67971 12.8055 7.80474C12.6805 7.92976 12.5109 8 12.3341 8C12.1573 8 11.9877 7.92976 11.8627 7.80474C11.7377 7.67971 11.6674 7.51014 11.6674 7.33333V2.27333L2.14077 11.8067C2.01524 11.9322 1.84498 12.0027 1.66744 12.0027C1.48991 12.0027 1.31964 11.9322 1.19411 11.8067C1.06857 11.6811 0.998047 11.5109 0.998047 11.3333C0.998047 11.1558 1.06857 10.9855 1.19411 10.86L10.7274 1.33333H5.66744C5.49063 1.33333 5.32106 1.2631 5.19604 1.13807C5.07101 1.01305 5.00077 0.843478 5.00077 0.666667C5.00077 0.489856 5.07101 0.320286 5.19604 0.195262C5.32106 0.0702379 5.49063 0 5.66744 0H12.3341C12.5109 0 12.6805 0.0702379 12.8055 0.195262C12.9305 0.320286 13.0008 0.489856 13.0008 0.666667Z" fill="black"/>
</svg>
